<svg height="590" width="720" xmlns="http://www.w3.org/2000/svg">
<rect height="590" fill="#555" width="720"></rect>
<text fill="#7f7" font-family="Courier New" font-size="12" xml:space="preserve">
<tspan x="10" y="26">2 megabytes installed</tspan>
<tspan x="10" y="42"></tspan>
<tspan x="10" y="58">node_modules</tspan>
<tspan x="10" y="74">└─┬ koa-helmet@3.1.0 </tspan>
<tspan x="10" y="90">  └─┬ helmet@3.5.0 </tspan>
<tspan x="10" y="106">    ├─┬ connect@3.6.0 </tspan>
<tspan x="10" y="122">    │ ├─┬ debug@2.6.1 </tspan>
<tspan x="10" y="138">    │ │ └── ms@0.7.2 </tspan>
<tspan x="10" y="154">    │ ├─┬ finalhandler@1.0.0 </tspan>
<tspan x="10" y="170">    │ │ ├── encodeurl@1.0.1 </tspan>
<tspan x="10" y="186">    │ │ ├── escape-html@1.0.3 </tspan>
<tspan x="10" y="202">    │ │ ├─┬ on-finished@2.3.0 </tspan>
<tspan x="10" y="218">    │ │ │ └── ee-first@1.1.1 </tspan>
<tspan x="10" y="234">    │ │ ├── statuses@1.3.1 </tspan>
<tspan x="10" y="250">    │ │ └── unpipe@1.0.0 </tspan>
<tspan x="10" y="266">    │ ├── parseurl@1.3.1 </tspan>
<tspan x="10" y="282">    │ └── utils-merge@1.0.0 </tspan>
<tspan x="10" y="298">    ├── dns-prefetch-control@0.1.0 </tspan>
<tspan x="10" y="314">    ├── dont-sniff-mimetype@1.0.0 </tspan>
<tspan x="10" y="330">    ├── frameguard@3.0.0 </tspan>
<tspan x="10" y="346">    ├─┬ helmet-csp@2.4.0 </tspan>
<tspan x="10" y="362">    │ ├── camelize@1.0.0 </tspan>
<tspan x="10" y="378">    │ ├─┬ content-security-policy-builder@1.1.0 </tspan>
<tspan x="10" y="394">    │ │ └── dashify@0.2.2 </tspan>
<tspan x="10" y="410">    │ ├── dasherize@2.0.0 </tspan>
<tspan x="10" y="426">    │ ├── lodash.reduce@4.6.0 </tspan>
<tspan x="10" y="442">    │ └── platform@1.3.3 </tspan>
<tspan x="10" y="458">    ├── hide-powered-by@1.0.0 </tspan>
<tspan x="10" y="474">    ├── hpkp@2.0.0 </tspan>
<tspan x="10" y="490">    ├─┬ hsts@2.0.0 </tspan>
<tspan x="10" y="506">    │ └── core-util-is@1.0.2 </tspan>
<tspan x="10" y="522">    ├── ienoopen@1.0.0 </tspan>
<tspan x="10" y="538">    ├── nocache@2.0.0 </tspan>
<tspan x="10" y="554">    ├── referrer-policy@1.1.0 </tspan>
<tspan x="10" y="570">    └── x-xss-protection@1.0.0</tspan>
</text>
</svg>
